<svg xmlns="http://www.w3.org/2000/svg" viewBox="0 0 723 346"><defs><style>.cls-1{fill:#fefefe;}</style></defs><title>loader-1</title><g id="Layer_2" data-name="Layer 2"><g id="Layer_1-2" data-name="Layer 1"><path class="cls-1" d="M723,346H0V0H723ZM213.5,38.5v-1a12,12,0,0,0-12-12H41.5a12,12,0,0,0-12,12v1a12,12,0,0,0,12,12h160A12,12,0,0,0,213.5,38.5Zm43,140v-1a12,12,0,0,0-12-12H41.5a12,12,0,0,0-12,12v1a12,12,0,0,0,12,12h203A12,12,0,0,0,256.5,178.5Zm35-70v-1a12,12,0,0,0-12-12H41.5a12,12,0,0,0-12,12v1a12,12,0,0,0,12,12h238A12,12,0,0,0,291.5,108.5Zm12,105v-1a12,12,0,0,0-12-12H41.5a12,12,0,0,0-12,12v1a12,12,0,0,0,12,12h250A12,12,0,0,0,303.5,213.5Zm0,104v-1a12,12,0,0,0-12-12H40.5a12,12,0,0,0-12,12v1a12,12,0,0,0,12,12h251A12,12,0,0,0,303.5,317.5Zm-90-174v-1a12,12,0,0,0-12-12H41.5a12,12,0,0,0-12,12v1a12,12,0,0,0,12,12h160A12,12,0,0,0,213.5,143.5Zm33,104h0a12,12,0,0,0-12-12H40.5a12,12,0,0,0-12,12h0a12,12,0,0,0,12,12h194A12,12,0,0,0,246.5,247.5Zm24-174v-1a12,12,0,0,0-12-12H41.5a12,12,0,0,0-12,12v1a12,12,0,0,0,12,12h217A12,12,0,0,0,270.5,73.5Zm219-37v-1a12,12,0,0,0-12-12h-242a12,12,0,0,0-12,12v1a12,12,0,0,0,12,12h242A12,12,0,0,0,489.5,36.5Zm-36,141v-1a12,12,0,0,0-12-12h-160a12,12,0,0,0-12,12v1a12,12,0,0,0,12,12h160A12,12,0,0,0,453.5,177.5Zm46-70v-1a12,12,0,0,0-12-12h-160a12,12,0,0,0-12,12v1a12,12,0,0,0,12,12h160A12,12,0,0,0,499.5,107.5Zm0,105v-1a12,12,0,0,0-12-12h-160a12,12,0,0,0-12,12v1a12,12,0,0,0,12,12h160A12,12,0,0,0,499.5,212.5Zm-17-70v-1a12,12,0,0,0-12-12h-226a12,12,0,0,0-12,12v1a12,12,0,0,0,12,12h226A12,12,0,0,0,482.5,142.5Zm-41,104h0a12,12,0,0,0-12-12h-161a12,12,0,0,0-12,12h0a12,12,0,0,0,12,12h161A12,12,0,0,0,441.5,246.5Zm82-174v-1a12,12,0,0,0-12-12h-217a12,12,0,0,0-12,12v1a12,12,0,0,0,12,12h217A12,12,0,0,0,523.5,72.5Zm184-34v-1a12,12,0,0,0-12-12h-184a12,12,0,0,0-12,12v1a12,12,0,0,0,12,12h184A12,12,0,0,0,707.5,38.5Zm-59,139v-1a12,12,0,0,0-12-12h-160a12,12,0,0,0-12,12v1a12,12,0,0,0,12,12h160A12,12,0,0,0,648.5,177.5Zm43-69v-1a12,12,0,0,0-12-12h-160a12,12,0,0,0-12,12v1a12,12,0,0,0,12,12h160A12,12,0,0,0,691.5,108.5Zm7,104v-1a12,12,0,0,0-12-12h-160a12,12,0,0,0-12,12v1a12,12,0,0,0,12,12h160A12,12,0,0,0,698.5,212.5Zm-17-69v-1a12,12,0,0,0-12-12h-160a12,12,0,0,0-12,12v1a12,12,0,0,0,12,12h160A12,12,0,0,0,681.5,143.5Zm0,104h0a12,12,0,0,0-12-12h-204a12,12,0,0,0-12,12h0a12,12,0,0,0,12,12h204A12,12,0,0,0,681.5,247.5Zm-17-174v-1a12,12,0,0,0-12-12h-105a12,12,0,0,0-12,12v1a12,12,0,0,0,12,12h105A12,12,0,0,0,664.5,73.5Zm33,244v-1a12,12,0,0,0-12-12h-84a12,12,0,0,0-12,12v1a12,12,0,0,0,12,12h84A12,12,0,0,0,697.5,317.5Z"/></g></g></svg>